<svg version="1.1" id="Layer_1" xmlns="http://www.w3.org/2000/svg" xmlns:xlink="http://www.w3.org/1999/xlink" x="0px" y="0px"
	 width="100%" viewBox="0 0 500 500" enable-background="new 0 0 500 500" xml:space="preserve">
<path fill="#080B0E" opacity="1.000000" stroke="none" 
	d="
M285.000000,501.000000 
	C191.333359,501.000000 98.166679,500.975891 5.000190,501.095703 
	C1.576153,501.100128 0.903036,500.423828 0.905301,497.000000 
	C1.013778,333.000092 1.013756,169.000122 0.905337,5.000248 
	C0.903074,1.576952 1.575788,0.903021 4.999875,0.905286 
	C168.999756,1.013775 332.999725,1.013761 496.999634,0.905353 
	C500.422668,0.903091 501.096985,1.575426 501.094727,4.999755 
	C500.986206,168.999634 500.986237,332.999603 501.094604,496.999512 
	C501.096893,500.422272 500.425690,501.102692 497.000244,501.096466 
	C426.500336,500.968201 356.000153,501.000000 285.000000,501.000000 
z"/>
<path fill="#F7E115" opacity="1.000000" stroke="none" 
	d="
M262.375671,147.633453 
	C254.934799,149.743515 247.730408,148.729141 240.238556,148.311005 
	C237.380051,141.335281 238.146820,134.582596 239.862915,127.469246 
	C247.102737,127.091873 253.991623,127.062881 261.334045,127.076447 
	C263.418793,128.400162 263.571472,130.229309 263.462555,132.058487 
	C263.161255,137.120026 264.349976,142.258957 262.375671,147.633453 
z"/>
<path fill="#F7E115" opacity="1.000000" stroke="none" 
	d="
M329.976990,148.406982 
	C322.761658,148.740540 315.960175,148.803772 308.706238,148.879211 
	C307.310913,148.128815 306.619293,147.165482 306.653107,145.940582 
	C306.820190,139.886581 305.493103,133.762253 307.811829,127.427711 
	C315.042603,127.062119 321.936218,127.060287 329.276855,127.125137 
	C330.373474,127.716484 331.099457,128.298203 331.129059,129.145981 
	C331.350586,135.492096 332.534027,141.882111 329.976990,148.406982 
z"/>
<path fill="#F7E115" opacity="1.000000" stroke="none" 
	d="
M148.424255,172.001495 
	C148.755646,179.220306 148.804688,186.033371 148.873657,193.298996 
	C148.127121,194.689728 147.163879,195.382217 145.939072,195.347427 
	C139.886169,195.175568 133.761566,196.514801 127.430130,194.180634 
	C127.074081,186.955719 127.081017,180.068802 127.142029,172.734070 
	C127.714760,171.630707 128.294968,170.904617 129.143234,170.873215 
	C135.491882,170.638107 141.882080,169.482895 148.424255,172.001495 
z"/>
<path fill="#F7E115" opacity="1.000000" stroke="none" 
	d="
M374.480713,171.904694 
	C374.865112,178.430252 374.864044,184.587662 375.007721,190.741699 
	C375.057678,192.880402 374.790497,194.156769 372.120392,194.065002 
	C366.800171,193.882156 361.466095,193.903275 356.144043,194.057159 
	C353.602600,194.130630 353.093414,193.014755 353.139526,190.783112 
	C353.259827,184.959717 353.205902,179.132721 353.262207,172.867188 
	C353.723328,171.690414 354.261078,170.935944 355.122986,170.893066 
	C361.481293,170.576675 367.870117,169.561584 374.480713,171.904694 
z"/>
<path fill="#F4DE15" opacity="1.000000" stroke="none" 
	d="
M148.425873,239.996887 
	C148.740936,247.171585 148.771454,253.942139 148.757568,261.153748 
	C148.276505,262.319214 147.731918,263.068573 146.872467,263.110199 
	C140.516083,263.418488 134.128525,264.441498 127.521759,262.092682 
	C127.157219,254.873642 127.119926,248.025085 127.137810,240.728485 
	C127.715096,239.628479 128.295929,238.903168 129.143951,238.871918 
	C135.492111,238.637985 141.881577,237.485733 148.425873,239.996887 
z"/>
<path fill="#F4DE15" opacity="1.000000" stroke="none" 
	d="
M262.049500,261.492004 
	C255.668640,261.831940 249.670578,261.793488 243.675858,261.917145 
	C241.311508,261.965881 239.932785,261.547760 240.033234,258.692230 
	C240.214691,253.534332 240.174896,248.363205 240.045593,243.202179 
	C239.984497,240.763458 240.966125,240.034668 243.280914,240.081635 
	C249.109192,240.199936 254.941101,240.140076 261.218903,240.169418 
	C262.217896,240.569214 262.901367,241.030136 262.955353,241.637802 
	C263.535828,248.167404 264.452881,254.716263 262.049500,261.492004 
z"/>
<path fill="#F4DE15" opacity="1.000000" stroke="none" 
	d="
M308.511719,262.110046 
	C308.139374,254.882401 308.101746,248.018768 308.119995,240.705612 
	C308.919189,239.293015 309.889038,238.605377 311.106140,238.654587 
	C317.119812,238.897675 323.233093,237.329651 329.401978,240.031586 
	C329.695526,247.188934 329.723389,253.929367 329.711182,261.107971 
	C329.272919,262.298767 328.743530,263.058228 327.878784,263.103058 
	C321.519531,263.432953 315.131287,264.426666 308.511719,262.110046 
z"/>
<path fill="#F4DE15" opacity="1.000000" stroke="none" 
	d="
M353.580994,261.992065 
	C353.273071,254.822906 353.243866,248.061905 353.257050,240.860733 
	C353.724426,239.687332 354.264221,238.934753 355.125366,238.892044 
	C361.482849,238.576630 367.870758,237.563919 374.482422,239.900696 
	C374.849731,247.123001 374.886902,253.977295 374.869019,261.280273 
	C374.285645,262.374847 373.703430,263.100098 372.855713,263.130096 
	C366.508026,263.354950 360.117615,264.523590 353.580994,261.992065 
z"/>
<path fill="#F7E115" opacity="1.000000" stroke="none" 
	d="
M127.523422,330.088623 
	C127.143135,322.835785 127.088516,315.954956 127.050507,308.615723 
	C128.126450,306.938751 129.522919,306.464630 131.067444,306.561096 
	C136.779205,306.917816 142.596436,305.433380 148.550659,307.889740 
	C148.860672,315.067688 148.828033,321.887238 148.752441,329.147522 
	C148.277344,330.316193 147.734711,331.067383 146.874542,331.109192 
	C140.517426,331.418304 134.128967,332.443939 127.523422,330.088623 
z"/>
<path fill="#F7E115" opacity="1.000000" stroke="none" 
	d="
M239.861420,308.469879 
	C246.360977,308.076202 252.510864,308.088745 258.657745,307.958252 
	C260.814240,307.912537 262.059723,308.241943 261.971069,310.883728 
	C261.792725,316.196960 261.824646,321.522675 261.958221,326.838531 
	C262.020508,329.317719 260.961487,329.953247 258.694031,329.909271 
	C252.878311,329.796326 247.059311,329.851746 240.795227,329.822632 
	C239.664673,329.317200 238.923965,328.756104 238.882767,327.900146 
	C238.575912,321.525513 237.584366,315.121826 239.861420,308.469879 
z"/>
<path fill="#F7E115" opacity="1.000000" stroke="none" 
	d="
M308.513428,330.106171 
	C308.124023,323.421326 308.142853,317.099854 307.970795,310.783600 
	C307.910858,308.582458 308.670105,307.899841 310.826324,307.949097 
	C316.147491,308.070679 321.476349,308.095428 326.795898,307.943054 
	C329.313599,307.870941 329.870117,308.944000 329.823059,311.196136 
	C329.701508,317.016663 329.758636,322.840942 329.705872,329.101685 
	C329.274078,330.295776 328.746674,331.056976 327.881195,331.101990 
	C321.521118,331.432831 315.131958,332.428986 308.513428,330.106171 
z"/>
<path fill="#F7E115" opacity="1.000000" stroke="none" 
	d="
M353.582672,329.987488 
	C353.262482,323.422241 353.297272,317.264709 353.135223,311.112396 
	C353.073181,308.756622 353.827881,307.880219 356.247192,307.945038 
	C361.568420,308.087524 366.898376,308.079407 372.220093,307.946472 
	C374.464325,307.890442 375.056915,308.748566 375.013000,310.856506 
	C374.888306,316.844513 374.937866,322.836121 374.864807,329.274780 
	C374.285889,330.372681 373.704254,331.098572 372.856293,331.128784 
	C366.508118,331.354858 360.117065,332.526306 353.582672,329.987488 
z"/>
<path fill="#FEE715" opacity="1.000000" stroke="none" 
	d="
M239.972031,353.509644 
	C247.158066,353.195312 253.952271,353.186066 261.192139,353.188354 
	C262.201019,353.568207 262.895905,354.022003 262.949646,354.629852 
	C263.527863,361.165222 264.479248,367.721405 262.012726,374.483398 
	C254.836777,374.786896 248.058243,374.792725 240.835938,374.789185 
	C239.816589,374.428619 239.111664,373.984528 239.056183,373.376526 
	C238.459793,366.839569 237.535645,360.283142 239.972031,353.509644 
z"/>
<path fill="#F7E115" opacity="1.000000" stroke="none" 
	d="
M374.480713,352.904663 
	C374.865112,359.430359 374.863953,365.587952 375.007782,371.742126 
	C375.057770,373.881500 374.789276,375.156738 372.119843,375.065033 
	C366.799469,374.882202 361.465271,374.903290 356.143066,375.057159 
	C353.601898,375.130615 353.092560,374.015991 353.138947,371.783539 
	C353.259888,365.960022 353.205750,360.132843 353.262238,353.867126 
	C353.723389,352.690399 354.261200,351.935974 355.123047,351.893066 
	C361.481323,351.576752 367.870117,350.561584 374.480713,352.904663 
z"/>
<path fill="#FBE415" opacity="1.000000" stroke="none" 
	d="
M82.495056,330.130249 
	C82.086166,323.476074 82.076271,317.176147 81.921967,310.879791 
	C81.872009,308.841370 82.348114,307.889374 84.641731,307.951874 
	C89.945023,308.096344 95.256653,308.076050 100.561310,307.959229 
	C102.674110,307.912689 103.531593,308.554657 103.472504,310.753326 
	C103.307838,316.880310 103.297287,323.011505 103.083611,329.521942 
	C96.318207,332.786285 89.582764,331.797058 82.495056,330.130249 
z"/>
<path fill="#FBE415" opacity="1.000000" stroke="none" 
	d="
M102.574371,352.764282 
	C104.033577,359.672760 103.172150,366.297577 103.436508,372.894135 
	C103.510826,374.748657 102.443260,375.029297 100.915100,375.017456 
	C95.450974,374.975128 89.983536,374.898865 84.523140,375.047760 
	C82.098564,375.113922 81.902351,373.899811 81.930153,372.009308 
	C82.017807,366.049683 81.998627,360.088501 82.085907,353.677551 
	C83.149666,351.934113 84.545815,351.479614 86.084908,351.563812 
	C91.459160,351.857788 96.921082,350.551880 102.574371,352.764282 
z"/>
<path fill="#F9E315" opacity="1.000000" stroke="none" 
	d="
M308.482910,239.140518 
	C308.065430,232.870056 308.150848,226.876160 307.965210,220.890671 
	C307.884735,218.295731 308.699921,217.362381 311.331085,217.447784 
	C316.318542,217.609650 321.320923,217.641190 326.305511,217.440018 
	C329.343048,217.317429 329.896545,218.689713 329.825409,221.324875 
	C329.677246,226.812836 329.782318,232.307632 329.789368,238.249161 
	C322.874115,240.441879 315.846741,239.112717 308.482910,239.140518 
z"/>
<path fill="#F9E315" opacity="1.000000" stroke="none" 
	d="
M369.862671,375.992737 
	C373.947357,375.363373 375.392761,376.583588 375.059784,380.482758 
	C374.679321,384.937958 374.801666,389.459320 375.031738,393.935150 
	C375.182007,396.859314 374.073578,397.872528 371.329895,397.512756 
	C371.003143,397.469910 370.664490,397.527679 370.333618,397.505341 
	C364.743225,397.128601 356.746735,399.990570 354.170715,396.379425 
	C351.312683,392.372925 353.394775,384.903412 353.141083,378.949646 
	C353.031647,376.380432 354.192413,375.897186 356.414398,375.958740 
	C360.732544,376.078400 365.056366,375.993134 369.862671,375.992737 
z"/>
<path fill="#F8E215" opacity="1.000000" stroke="none" 
	d="
M125.373428,398.838470 
	C125.864471,405.193604 125.875984,411.315186 126.096550,417.429260 
	C126.183716,419.845459 124.972794,420.063995 123.068092,420.035583 
	C117.932846,419.958954 112.789764,419.861877 107.661674,420.068176 
	C104.857315,420.181000 104.356987,418.961304 104.423325,416.548889 
	C104.555374,411.747498 104.592529,406.935059 104.412849,402.136780 
	C104.308075,399.338837 105.235001,398.326355 108.084259,398.434296 
	C113.709435,398.647339 119.345856,398.563171 125.373428,398.838470 
z"/>
<path fill="#FBE415" opacity="1.000000" stroke="none" 
	d="
M102.574387,171.764297 
	C104.033737,178.672943 103.171066,185.298065 103.437752,191.894745 
	C103.512764,193.750412 102.442947,194.029114 100.915703,194.017365 
	C95.451424,193.975311 89.983826,193.898880 84.523277,194.047745 
	C82.099396,194.113831 81.901817,192.901367 81.929771,191.009857 
	C82.017853,185.050079 81.998535,179.088699 82.085892,172.677582 
	C83.149628,170.934113 84.545784,170.479630 86.084885,170.563828 
	C91.459152,170.857834 96.921082,169.551849 102.574387,171.764297 
z"/>
<path fill="#F9E315" opacity="1.000000" stroke="none" 
	d="
M149.105591,419.486786 
	C142.621918,419.881653 136.500671,419.852264 130.386856,420.051208 
	C127.894188,420.132294 126.839096,419.516632 126.949104,416.784088 
	C127.155243,411.663391 127.084320,406.526886 126.974083,401.400299 
	C126.928352,399.273254 127.673782,398.424438 129.812576,398.476746 
	C135.922836,398.626251 142.035675,398.669769 148.525925,398.906616 
	C151.775803,405.681305 150.814774,412.412445 149.105591,419.486786 
z"/>
<path fill="#F9E315" opacity="1.000000" stroke="none" 
	d="
M330.087952,419.474548 
	C323.597076,419.868317 317.475037,419.841431 311.361267,420.052979 
	C308.850433,420.139862 307.832703,419.505371 307.943604,416.783630 
	C308.152344,411.662109 308.080627,406.524414 307.968567,401.396851 
	C307.922302,399.278595 308.630829,398.415833 310.789246,398.474548 
	C316.897827,398.640564 323.009552,398.690521 329.499573,398.931030 
	C332.798218,405.688354 331.813843,412.413818 330.087952,419.474548 
z"/>
<path fill="#F8E215" opacity="1.000000" stroke="none" 
	d="
M124.486176,103.448837 
	C118.713081,103.500778 113.395798,103.374786 108.090103,103.567650 
	C105.234535,103.671455 104.307526,102.659508 104.412666,99.856346 
	C104.592995,95.048653 104.543694,90.227333 104.427711,85.415672 
	C104.370773,83.053688 104.779854,81.711563 107.635559,81.821953 
	C112.774376,82.020615 117.926636,81.851494 123.072662,81.900337 
	C124.124550,81.910324 125.963043,81.442657 125.894531,82.997658 
	C125.594864,89.799393 127.375580,96.708328 124.486176,103.448837 
z"/>
<path fill="#F9E315" opacity="1.000000" stroke="none" 
	d="
M149.232788,102.572006 
	C142.337067,104.176826 135.713867,103.229889 129.123276,103.475945 
	C126.869446,103.560089 127.002228,101.934456 127.005165,100.405281 
	C127.015038,95.273109 127.161682,90.134529 126.948631,85.011192 
	C126.829376,82.143356 128.167404,81.791405 130.508667,81.846748 
	C136.299347,81.983620 142.094254,81.942909 148.335938,82.057755 
	C150.427307,83.414658 150.583069,85.247597 150.459610,87.071045 
	C150.118179,92.114029 151.460480,97.258224 149.232788,102.572006 
z"/>
<path fill="#F9E315" opacity="1.000000" stroke="none" 
	d="
M352.869507,82.495987 
	C359.520691,82.063324 365.817657,82.023712 372.111145,81.855057 
	C374.173767,81.799789 375.090393,82.379250 375.035187,84.629295 
	C374.905060,89.933495 374.923279,95.244431 375.028473,100.549736 
	C375.069763,102.630623 374.447968,103.583466 372.241577,103.525131 
	C366.117676,103.363228 359.990570,103.321747 353.486237,103.083115 
	C350.201324,96.315338 351.208893,89.581482 352.869507,82.495987 
z"/>
<path fill="#F4DE15" opacity="1.000000" stroke="none" 
	d="
M384.033997,81.867538 
	C388.662964,81.973389 394.145081,80.506271 396.590302,82.594780 
	C399.460114,85.045898 397.471710,90.707382 397.546539,94.966110 
	C397.696930,103.527641 397.590240,103.606026 388.883331,103.496040 
	C384.760406,103.443970 379.480927,105.251015 376.825500,102.770119 
	C374.136566,100.257858 376.277283,94.921478 375.949890,90.837990 
	C375.910156,90.342781 375.944427,89.841644 375.944458,89.343254 
	C375.944580,81.868111 375.944550,81.868111 384.033997,81.867538 
z"/>
<path fill="#F9E315" opacity="1.000000" stroke="none" 
	d="
M330.223236,102.564697 
	C323.324921,104.189674 316.698334,103.213013 310.106720,103.482628 
	C308.274506,103.557579 307.986206,102.420319 307.996643,100.904953 
	C308.034271,95.440521 308.104370,89.973335 307.968018,84.512054 
	C307.908844,82.142212 309.063629,81.827690 310.993500,81.859428 
	C316.952484,81.957474 322.913208,81.948982 329.320282,82.068573 
	C331.066925,83.148819 331.520721,84.545761 331.435608,86.084129 
	C331.138306,91.456238 332.458679,96.917999 330.223236,102.564697 
z"/>
<path fill="#FBE415" opacity="1.000000" stroke="none" 
	d="
M82.495071,149.130249 
	C82.086174,142.476089 82.076263,136.176178 81.921974,129.879822 
	C81.872025,127.841461 82.348007,126.889412 84.641685,126.951897 
	C89.944969,127.096382 95.256607,127.076088 100.561249,126.959251 
	C102.674026,126.912720 103.531593,127.554520 103.472504,129.753250 
	C103.307838,135.880264 103.297295,142.011429 103.083633,148.521881 
	C96.318237,151.786285 89.582787,150.797058 82.495071,149.130249 
z"/>
<path fill="#F8E215" opacity="1.000000" stroke="none" 
	d="
M262.909485,240.488831 
	C269.212311,240.127655 275.196991,240.213959 281.176941,240.084152 
	C283.520203,240.033279 284.442200,240.763107 284.374207,243.177200 
	C284.205994,249.152328 284.223694,255.132706 284.047302,261.497009 
	C277.325745,264.836395 270.591980,263.732635 263.505402,262.186462 
	C263.155640,261.838654 263.078217,261.844116 263.109436,261.867126 
	C261.763550,254.907990 262.781952,247.863037 262.909485,240.488831 
z"/>
<path fill="#F9E315" opacity="1.000000" stroke="none" 
	d="
M253.939758,420.007263 
	C249.161819,419.765259 243.627792,421.796722 240.909439,419.215302 
	C238.158096,416.602478 240.123001,411.023834 240.050217,406.752258 
	C239.909485,398.493469 240.010864,398.393066 248.064468,398.530396 
	C252.525436,398.606445 258.294800,396.604431 261.093262,399.393341 
	C263.873535,402.164062 261.865997,407.930603 261.947632,412.377014 
	C262.087708,420.004913 261.986206,420.006775 253.939758,420.007263 
z"/>
<path fill="#F8E215" opacity="1.000000" stroke="none" 
	d="
M400.525391,261.967651 
	C397.248352,259.982117 398.677979,257.069672 398.701141,254.662048 
	C398.746857,249.900436 396.489197,243.558014 399.688293,240.823441 
	C402.431702,238.478409 408.576019,240.044525 413.217407,240.003235 
	C420.058502,239.942398 420.201630,239.992599 420.011597,246.881332 
	C419.875885,251.801773 422.207855,258.358093 418.953064,261.166962 
	C416.143127,263.591919 409.772064,261.898376 404.974884,262.007446 
	C403.644226,262.037720 402.312103,262.003571 400.525391,261.967651 
z"/>
<path fill="#F8E215" opacity="1.000000" stroke="none" 
	d="
M82.493423,262.134460 
	C82.104362,254.894379 82.059814,248.008377 82.081558,240.671860 
	C83.151230,238.934799 84.546516,238.479446 86.085876,238.563339 
	C91.460533,238.856247 96.921989,237.556793 102.577553,239.758575 
	C103.952652,247.096695 103.434036,254.124832 103.089958,261.529175 
	C96.319969,264.779999 89.583649,263.797638 82.493423,262.134460 
z"/>
<path fill="#F9E315" opacity="1.000000" stroke="none" 
	d="
M262.278809,102.603104 
	C254.918304,104.041878 247.856171,103.457115 240.420837,103.136566 
	C237.259628,96.327393 238.209793,89.571594 239.822083,82.447586 
	C247.085678,82.041351 254.009109,81.994400 261.386627,82.016464 
	C263.745453,83.698677 263.585144,85.938324 263.460510,88.048416 
	C263.181274,92.775116 264.398743,97.596611 262.278809,102.603104 
z"/>
<path fill="#F8E215" opacity="1.000000" stroke="none" 
	d="
M284.150940,374.389282 
	C277.245880,374.759399 270.704651,374.802612 263.711212,374.850037 
	C261.616058,367.898834 262.852234,360.851685 262.909668,353.489929 
	C269.782806,353.134094 276.335724,353.140656 283.340637,353.205750 
	C284.757080,353.996277 285.393738,354.970245 285.355103,356.172821 
	C285.163452,362.139709 286.522522,368.182037 284.150940,374.389282 
z"/>
<path fill="#F8E215" opacity="1.000000" stroke="none" 
	d="
M217.850555,353.588501 
	C224.762100,353.213379 231.313110,353.169495 238.318298,353.125427 
	C240.342957,360.092987 239.169968,367.143555 239.075958,374.503357 
	C232.205414,374.845886 225.666534,374.836578 218.675842,374.776978 
	C217.255981,373.998474 216.609024,373.028442 216.647186,371.823608 
	C216.836319,365.851807 215.472641,359.804199 217.850555,353.588501 
z"/>
<path fill="#F8E215" opacity="1.000000" stroke="none" 
	d="
M216.138031,374.406006 
	C210.174713,374.783600 204.541702,374.678528 198.921585,374.900177 
	C196.033112,375.014099 194.710342,374.411255 194.903473,371.143066 
	C195.186218,366.358765 195.117249,361.539551 194.922150,356.746460 
	C194.809357,353.975342 195.618027,352.950775 198.514114,353.065613 
	C203.968933,353.281921 209.438126,353.136230 215.356262,353.182831 
	C218.065735,356.174438 216.841858,359.587952 216.920670,362.770416 
	C217.013596,366.522217 217.550735,370.337341 216.138031,374.406006 
z"/>
<path fill="#F9E315" opacity="1.000000" stroke="none" 
	d="
M239.869003,195.471817 
	C247.107819,195.096283 253.993347,195.067062 261.332458,195.078552 
	C263.419464,196.399979 263.579956,198.231293 263.460815,200.059631 
	C263.131470,205.114105 264.424713,210.261566 262.283813,215.605286 
	C254.964508,217.032059 247.941498,216.432907 240.484451,216.143097 
	C237.259109,209.326813 238.192154,202.577576 239.869003,195.471817 
z"/>
<path fill="#F8E215" opacity="1.000000" stroke="none" 
	d="
M172.815842,353.543274 
	C178.791702,353.176331 184.419724,353.278839 190.036316,353.071594 
	C192.903961,352.965759 194.347794,353.553711 194.046890,356.830322 
	C193.508469,362.693451 194.767639,368.638275 193.354904,374.478821 
	C186.935501,374.597626 180.516113,374.716431 173.640656,374.805450 
	C172.236404,374.024078 171.603760,373.045532 171.641479,371.839203 
	C171.828735,365.850769 170.502182,359.790649 172.815842,353.543274 
z"/>
<path fill="#FDE615" opacity="1.000000" stroke="none" 
	d="
M127.556992,216.218872 
	C127.160904,209.273102 127.103767,202.678284 127.059311,195.625641 
	C134.075851,193.729492 141.148254,194.797516 148.536377,194.925018 
	C148.857376,201.805115 148.827774,208.350739 148.719330,215.345627 
	C148.048172,216.674423 147.200943,217.313248 146.176468,217.303436 
	C140.076691,217.245010 133.921768,218.447586 127.556992,216.218872 
z"/>
<path fill="#FEE715" opacity="1.000000" stroke="none" 
	d="
M216.254562,285.920441 
	C216.574326,292.098663 216.498459,297.887634 216.678268,303.668640 
	C216.758636,306.252808 215.921494,307.139740 213.306198,307.049469 
	C208.186935,306.872742 203.052841,306.871338 197.933807,307.050964 
	C195.422989,307.139069 194.905548,306.145935 194.959732,303.886719 
	C195.094498,298.268524 195.011169,292.645111 195.067871,286.564392 
	C196.425674,284.530914 198.250061,284.410767 200.045212,284.540131 
	C205.348297,284.922333 210.769119,283.437866 216.254562,285.920441 
z"/>
<path fill="#FDE615" opacity="1.000000" stroke="none" 
	d="
M374.450500,285.777954 
	C374.848022,292.095947 374.801666,298.068176 375.011627,304.031372 
	C375.099884,306.539398 374.100464,307.098602 371.827667,307.040680 
	C366.687775,306.909637 361.536530,306.854675 356.401306,307.057037 
	C353.604553,307.167206 353.085602,305.977478 353.150330,303.534973 
	C353.295288,298.063660 353.211975,292.586243 353.300171,286.662537 
	C353.964172,285.327576 354.812103,284.689423 355.835449,284.698456 
	C361.933380,284.752197 368.085907,283.554535 374.450500,285.777954 
z"/>
<path fill="#F8E215" opacity="1.000000" stroke="none" 
	d="
M171.118530,374.374084 
	C164.970215,374.754547 159.165344,374.716278 153.366364,374.882843 
	C150.948486,374.952332 149.698883,374.471985 149.804688,371.658051 
	C149.997757,366.523773 149.948166,361.374847 149.820526,356.236481 
	C149.761932,353.877106 150.560410,353.024963 152.957458,353.084900 
	C158.593124,353.225891 164.234467,353.141113 170.324249,353.208191 
	C172.869492,355.503052 171.959488,358.276520 171.935699,360.794556 
	C171.894012,365.207245 172.591248,369.662079 171.118530,374.374084 
z"/>
<path fill="#F9E315" opacity="1.000000" stroke="none" 
	d="
M374.512726,330.866333 
	C374.922028,337.745148 374.942352,344.338623 374.932220,351.390137 
	C367.924194,353.246124 360.882507,352.220367 353.528778,352.066406 
	C353.183594,345.210815 353.182434,338.693359 353.182465,331.724640 
	C360.115753,329.593445 367.145599,330.869171 374.512726,330.866333 
z"/>
<path fill="#FDE615" opacity="1.000000" stroke="none" 
	d="
M353.694092,216.166656 
	C353.319397,209.824493 353.316650,203.855667 353.162170,197.890762 
	C353.107544,195.782593 353.772552,194.739853 355.977600,194.996490 
	C356.304840,195.034592 356.640625,194.995270 356.972321,195.000473 
	C362.756897,195.091064 368.541473,195.183075 374.326050,195.274750 
	C375.718719,201.799683 374.627960,208.402267 374.866608,215.415955 
	C373.631622,217.373550 371.955139,217.564362 370.280212,217.456573 
	C364.857758,217.107651 359.336365,218.488297 353.694092,216.166656 
z"/>
<path fill="#F9E315" opacity="1.000000" stroke="none" 
	d="
M329.462463,330.949097 
	C329.789124,337.110138 329.677216,342.923645 329.827789,348.730316 
	C329.894714,351.309906 329.079254,352.251526 326.445343,352.166748 
	C321.303986,352.001221 316.150177,352.006531 311.008423,352.165161 
	C308.542175,352.241241 307.917999,351.295898 307.973419,348.990173 
	C308.109039,343.348663 308.022247,337.701813 308.057465,331.598267 
	C315.073059,329.771790 322.116882,330.767609 329.462463,330.949097 
z"/>
<path fill="#F9E315" opacity="1.000000" stroke="none" 
	d="
M148.475616,330.926086 
	C148.829102,337.073975 148.727753,342.892517 148.885101,348.704102 
	C148.954254,351.258087 148.208954,352.258148 145.535065,352.168335 
	C140.389771,351.995544 135.231689,352.015564 130.084747,352.161591 
	C127.678261,352.229919 126.931023,351.387299 126.991035,349.020905 
	C127.134239,343.374908 127.041260,337.722900 127.072968,331.615479 
	C134.077316,329.745483 141.118118,330.785278 148.475616,330.926086 
z"/>
<path fill="#FBE415" opacity="1.000000" stroke="none" 
	d="
M404.062134,307.996155 
	C409.623138,308.327271 416.399994,305.817566 419.270050,309.034576 
	C421.769073,311.835724 420.057312,318.481476 420.030609,323.427460 
	C419.990234,330.908447 421.078217,329.911224 413.443512,329.993988 
	C409.631805,330.035339 405.814240,329.878998 402.008789,330.038574 
	C399.380859,330.148743 398.511993,329.097351 398.581482,326.561859 
	C398.708588,321.924438 398.937531,317.251831 398.519836,312.648682 
	C398.135681,308.415649 399.962830,307.460785 404.062134,307.996155 
z"/>
<path fill="#FDE615" opacity="1.000000" stroke="none" 
	d="
M127.491043,239.127151 
	C127.092514,232.238754 127.079178,225.640793 127.141541,218.588303 
	C134.072922,215.965439 141.024292,217.006256 148.297852,217.856216 
	C148.699524,224.741379 148.763168,231.285614 148.824707,238.281555 
	C141.887375,240.397629 134.856598,239.136093 127.491043,239.127151 
z"/>
<path fill="#FDE615" opacity="1.000000" stroke="none" 
	d="
M374.427063,217.812225 
	C374.845306,224.726364 374.900391,231.326492 374.926941,238.384430 
	C367.921875,240.253052 360.880005,239.217590 353.529694,239.062531 
	C353.199646,232.184540 353.210632,225.647736 353.300232,218.662231 
	C355.603394,216.128998 358.362640,217.048309 360.868713,217.063232 
	C365.265076,217.089371 369.698883,216.451172 374.427063,217.812225 
z"/>
<path fill="#FBE415" opacity="1.000000" stroke="none" 
	d="
M217.776047,308.490448 
	C224.731613,308.093292 231.345703,308.048645 238.419891,308.034210 
	C240.210236,315.063782 239.230835,322.121246 239.088821,329.510315 
	C232.218292,329.862244 225.669159,329.853363 218.668762,329.785553 
	C217.244995,328.996063 216.612091,328.018677 216.645111,326.811584 
	C216.809006,320.818207 215.535843,314.759094 217.776047,308.490448 
z"/>
<path fill="#FBE415" opacity="1.000000" stroke="none" 
	d="
M216.144882,329.406189 
	C209.988129,329.793030 204.160767,329.714142 198.343185,329.916412 
	C195.715179,330.007812 194.856323,329.154602 194.945496,326.530243 
	C195.120636,321.376953 195.105225,316.210175 194.948730,311.055695 
	C194.876678,308.682709 195.593811,307.876678 198.018265,307.946350 
	C203.672195,308.108917 209.333817,308.004181 215.453644,308.052917 
	C217.970444,315.033539 217.035233,322.049377 216.144882,329.406189 
z"/>
<path fill="#FDE615" opacity="1.000000" stroke="none" 
	d="
M329.271484,285.846497 
	C329.642303,292.188080 329.645264,298.154266 329.797363,304.116699 
	C329.851227,306.227417 329.168030,307.256470 326.973633,307.002838 
	C326.646454,306.964996 326.310883,307.004120 325.979340,306.998779 
	C320.199677,306.905579 314.420044,306.810974 308.640381,306.716644 
	C307.293640,300.190002 308.348938,293.590759 308.119812,286.576965 
	C309.359772,284.631134 311.032440,284.433533 312.706879,284.543213 
	C318.123047,284.898071 323.640839,283.499481 329.271484,285.846497 
z"/>
<path fill="#F8E215" opacity="1.000000" stroke="none" 
	d="
M285.850616,353.587280 
	C291.974152,353.199463 297.769653,353.250854 303.558960,353.085327 
	C305.999908,353.015503 307.440704,353.552765 307.016937,356.325165 
	C306.992218,356.486847 307.023804,356.656342 307.013672,356.821228 
	C306.651703,362.705872 307.771210,368.643616 306.380554,374.491241 
	C299.955231,374.604156 293.529907,374.717072 286.650146,374.787659 
	C283.993134,372.151672 285.108795,369.053772 285.073914,366.205566 
	C285.023926,362.122711 284.473969,357.991028 285.850616,353.587280 
z"/>
<path fill="#FBE415" opacity="1.000000" stroke="none" 
	d="
M172.738983,127.443733 
	C178.890732,127.052032 184.713760,127.109001 190.531235,126.955658 
	C192.920532,126.892685 194.180283,127.275459 194.055054,130.136658 
	C193.829803,135.283249 193.854507,140.451859 194.046494,145.601135 
	C194.148697,148.343033 193.060577,148.979889 190.553955,148.910431 
	C185.068970,148.758423 179.577026,148.856827 173.631729,148.816833 
	C172.225861,148.024292 171.605957,147.039093 171.638870,145.829987 
	C171.802521,139.819031 170.564499,133.746002 172.738983,127.443733 
z"/>
<path fill="#FBE415" opacity="1.000000" stroke="none" 
	d="
M216.169739,148.422989 
	C209.985825,148.793961 204.157013,148.715347 198.337875,148.916168 
	C195.713669,149.006714 194.843384,148.158340 194.931885,145.530746 
	C195.105469,140.376053 195.091385,135.208099 194.934708,130.052322 
	C194.862366,127.672447 195.594681,126.877762 198.012451,126.946716 
	C203.667892,127.107979 209.330856,127.004478 215.451889,127.054337 
	C217.474701,128.427460 217.582962,130.260406 217.461563,132.065094 
	C217.102463,137.403397 218.499939,142.845673 216.169739,148.422989 
z"/>
<path fill="#FDE615" opacity="1.000000" stroke="none" 
	d="
M127.557007,284.218933 
	C127.162354,277.271515 127.106651,270.675110 127.078293,263.621155 
	C134.079514,261.738464 141.120392,262.788055 148.474533,262.929871 
	C148.813675,269.808838 148.805923,276.352661 148.719299,283.345703 
	C148.048187,284.674591 147.200821,285.313263 146.176422,285.303436 
	C140.076675,285.244904 133.921768,286.447632 127.557007,284.218933 
z"/>
<path fill="#FBE415" opacity="1.000000" stroke="none" 
	d="
M217.808762,127.510437 
	C224.729874,127.092522 231.344162,127.048317 238.418427,127.034744 
	C240.261551,133.716125 239.165359,140.438644 239.313431,147.580109 
	C232.549789,149.921432 225.793243,148.362442 218.667175,148.786804 
	C216.137131,146.479660 217.045547,143.702515 217.062637,141.174179 
	C217.092560,136.746063 216.447037,132.280502 217.808762,127.510437 
z"/>
<path fill="#FEE715" opacity="1.000000" stroke="none" 
	d="
M216.253052,262.942932 
	C216.562485,269.823669 216.590286,276.304871 216.584229,283.232727 
	C215.433289,285.397461 213.642212,285.016602 212.072266,284.964142 
	C206.672363,284.783630 201.243225,285.570557 195.495636,284.197754 
	C195.087173,277.283081 195.053848,270.670746 195.092590,263.604370 
	C196.174393,261.887848 197.571640,261.465607 199.085861,261.561859 
	C204.712753,261.919525 210.448837,260.424408 216.253052,262.942932 
z"/>
<path fill="#FBE415" opacity="1.000000" stroke="none" 
	d="
M171.124222,148.371811 
	C164.827972,148.761719 158.873337,148.725281 152.925293,148.905991 
	C150.489761,148.979980 149.780228,148.045517 149.833481,145.729996 
	C149.955154,140.439270 150.000275,135.139343 149.816986,129.852158 
	C149.726044,127.228783 150.940018,126.921127 153.084854,126.962387 
	C158.707230,127.070549 164.332855,127.008629 170.412796,127.084633 
	C173.022598,134.057968 172.017731,141.051971 171.124222,148.371811 
z"/>
<path fill="#FBE415" opacity="1.000000" stroke="none" 
	d="
M262.851685,127.463654 
	C269.740875,127.049095 276.355835,127.030495 283.428650,127.072151 
	C285.131195,128.167068 285.533539,129.575302 285.441071,131.093018 
	C285.096405,136.750259 286.530914,142.505661 284.154083,148.400925 
	C277.002441,148.716248 270.213593,148.700928 263.134888,148.361115 
	C262.104126,141.319611 262.623138,134.585861 262.851685,127.463654 
z"/>
<path fill="#FDE615" opacity="1.000000" stroke="none" 
	d="
M308.560425,284.192169 
	C308.141052,277.274872 308.086823,270.668793 308.063080,263.604248 
	C315.075836,261.764374 322.120056,262.770538 329.461792,262.953369 
	C329.772766,269.829742 329.755646,276.352234 329.661407,283.322571 
	C327.726685,285.794647 325.273529,284.969086 323.094666,284.942841 
	C318.372314,284.885956 313.618011,285.536438 308.560425,284.192169 
z"/>
<path fill="#FBE415" opacity="1.000000" stroke="none" 
	d="
M285.791443,127.485336 
	C292.712830,127.070526 299.335205,127.036530 306.417938,127.027130 
	C308.212494,134.063004 307.227966,141.132980 307.095459,148.538757 
	C300.218964,148.885971 293.659943,148.867798 286.646576,148.804321 
	C283.998566,146.150726 285.112244,143.044586 285.072479,140.183807 
	C285.015503,136.084061 284.501740,131.939331 285.791443,127.485336 
z"/>
<path fill="#FDE615" opacity="1.000000" stroke="none" 
	d="
M353.718994,284.138489 
	C353.319519,277.257385 353.255188,270.719788 353.189148,263.731323 
	C360.117462,261.585144 367.147064,262.872742 374.511139,262.869629 
	C374.912750,269.758728 374.927216,276.359955 374.866608,283.416077 
	C367.936584,286.027222 360.987885,285.000641 353.718994,284.138489 
z"/>
<path fill="#FBE415" opacity="1.000000" stroke="none" 
	d="
M330.843201,127.471390 
	C336.903229,127.045364 342.699432,127.130348 348.487122,126.947136 
	C351.121277,126.863762 352.353973,127.407410 352.214111,130.407043 
	C351.975403,135.527328 352.055695,140.669098 352.186859,145.797119 
	C352.248077,148.191376 351.366974,148.959183 349.018890,148.905380 
	C343.393860,148.776550 337.763885,148.863617 331.681702,148.856674 
	C329.650513,141.899750 330.844818,134.863602 330.843201,127.471390 
z"/>
<path fill="#FBE415" opacity="1.000000" stroke="none" 
	d="
M398.832764,147.768234 
	C398.658600,141.671127 398.731842,136.032288 398.572540,130.400009 
	C398.502930,127.937943 399.076691,126.828163 401.829102,126.938164 
	C406.960266,127.143234 412.107605,127.084045 417.243744,126.955887 
	C419.387939,126.902390 420.149658,127.554825 420.095673,129.758224 
	C419.961670,135.225876 420.054779,140.698990 420.046478,146.169907 
	C420.044434,147.516052 420.123932,149.054245 418.154175,148.951614 
	C411.767639,148.618896 405.319336,149.910767 398.832764,147.768234 
z"/>
<path fill="#F9E315" opacity="1.000000" stroke="none" 
	d="
M127.489456,171.130463 
	C127.080147,165.026398 127.137466,159.208237 126.996941,153.394867 
	C126.939728,151.027969 127.295799,149.705231 130.169601,149.823303 
	C135.312988,150.034668 140.476318,150.018173 145.621384,149.828079 
	C148.418060,149.724762 148.939468,150.941971 148.879211,153.383545 
	C148.743958,158.864700 148.836380,164.351456 148.831192,170.288147 
	C141.889069,172.389374 134.858063,171.139603 127.489456,171.130463 
z"/>
<path fill="#F9E315" opacity="1.000000" stroke="none" 
	d="
M353.528717,171.066345 
	C353.183960,164.914474 353.288879,159.097931 353.133911,153.288345 
	C353.065552,150.725342 353.836884,149.744888 356.495789,149.832458 
	C361.639526,150.001877 366.795807,149.987396 371.940704,149.837372 
	C374.366791,149.766632 375.073151,150.644653 375.014801,152.990097 
	C374.874329,158.634262 374.965149,164.284180 374.932220,170.389954 
	C367.924194,172.246231 360.882446,171.220276 353.528717,171.066345 
z"/>
<path fill="#FDE615" opacity="1.000000" stroke="none" 
	d="
M148.297852,285.856262 
	C148.703033,292.743591 148.770172,299.289978 148.862610,306.287964 
	C141.919327,308.391174 134.857071,307.138611 127.458275,307.125488 
	C127.070152,300.235992 127.068001,293.639404 127.141541,286.588318 
	C134.072922,283.965393 141.024307,285.006256 148.297852,285.856262 
z"/>
<path fill="#FBE415" opacity="1.000000" stroke="none" 
	d="
M408.998779,375.003845 
	C398.614166,375.003845 398.614166,375.003845 398.614166,365.350739 
	C398.614166,352.998627 398.614166,352.998657 410.994232,352.998657 
	C420.053497,352.998657 420.053497,352.998627 420.053497,362.095490 
	C420.053497,362.924225 420.053497,363.752991 420.053497,364.581726 
	C420.053497,375.003845 420.053497,375.003845 408.998779,375.003845 
z"/>
<path fill="#FBE415" opacity="1.000000" stroke="none" 
	d="
M412.916260,171.998581 
	C421.038452,172.113037 420.086334,171.049194 419.999023,178.533875 
	C419.939941,183.596954 422.242798,190.371399 418.995026,193.229752 
	C416.161133,195.723877 409.493042,193.530533 404.601562,194.107880 
	C399.369049,194.725479 398.033905,192.746216 398.528503,187.884674 
	C398.945831,183.782547 398.710632,179.601593 398.582886,175.461121 
	C398.505402,172.949142 399.333923,171.836960 401.987152,171.962173 
	C405.460663,172.126099 408.947906,171.999954 412.916260,171.998581 
z"/>
<path fill="#FEE715" opacity="1.000000" stroke="none" 
	d="
M195.511139,239.196686 
	C195.111023,232.881760 195.147629,226.910019 194.958832,220.945419 
	C194.880783,218.480530 195.450180,217.352798 198.203522,217.462555 
	C203.172897,217.660645 208.161819,217.666107 213.130875,217.464203 
	C216.159973,217.341110 216.729172,218.734833 216.666748,221.342010 
	C216.535706,226.813934 216.620483,232.291016 216.579865,238.206909 
	C216.122253,239.381012 215.555862,240.081604 214.707809,240.124557 
	C208.410797,240.443588 202.089035,241.360840 195.511139,239.196686 
z"/>
<path fill="#FDE615" opacity="1.000000" stroke="none" 
	d="
M172.687927,82.395126 
	C178.992294,81.969994 184.978745,82.025002 190.958160,81.845879 
	C193.381760,81.773270 194.101501,82.619720 194.033157,84.979202 
	C193.883957,90.129128 193.873718,95.289917 194.036133,100.439034 
	C194.113800,102.901352 193.183655,103.581024 190.865433,103.527267 
	C185.215317,103.396240 179.560608,103.463402 173.445892,103.368668 
	C170.264511,96.527061 171.281418,89.655144 172.687927,82.395126 
z"/>
<path fill="#FEE715" opacity="1.000000" stroke="none" 
	d="
M399.343353,284.352753 
	C398.845032,277.944122 398.826080,271.835236 398.587189,265.734985 
	C398.485992,263.151123 399.720001,262.765106 401.874878,262.809174 
	C406.834137,262.910553 411.801880,262.974304 416.756134,262.786621 
	C419.365540,262.687775 420.189667,263.512939 420.102203,266.130463 
	C419.914520,271.747192 420.035370,277.374176 419.968811,283.456787 
	C417.945862,286.053040 415.325623,285.548004 412.930511,285.448822 
	C408.529785,285.266632 404.043457,286.324524 399.343353,284.352753 
z"/>
<path fill="#FEE715" opacity="1.000000" stroke="none" 
	d="
M283.642395,285.662109 
	C284.124481,292.096619 284.142487,298.225952 284.354675,304.348541 
	C284.436249,306.702911 283.336792,307.063965 281.354889,307.028229 
	C276.214325,306.935516 271.067078,306.878784 265.930481,307.048645 
	C263.474243,307.129852 262.834900,306.241516 262.895203,303.915863 
	C263.041351,298.279724 262.952301,292.637421 263.021759,286.537781 
	C265.380859,283.726929 268.353363,284.495880 271.053467,284.563934 
	C275.122314,284.666534 279.284027,283.708740 283.642395,285.662109 
z"/>
<path fill="#FEE715" opacity="1.000000" stroke="none" 
	d="
M103.407928,304.920502 
	C103.329147,307.174774 102.017792,306.984222 100.877151,306.987457 
	C95.562149,307.002563 90.243179,306.876465 84.933769,307.049927 
	C82.449173,307.131104 81.848183,306.202087 81.915398,303.896057 
	C82.060516,298.917450 82.068336,293.928314 81.913994,288.950256 
	C81.837280,286.476135 82.425331,285.354645 85.175377,285.463135 
	C90.150497,285.659546 95.142838,285.638306 100.120148,285.472565 
	C102.811638,285.382965 103.539413,286.468414 103.469872,288.981598 
	C103.327492,294.126648 103.425224,299.278320 103.407928,304.920502 
z"/>
<path fill="#FEE715" opacity="1.000000" stroke="none" 
	d="
M283.577271,262.769653 
	C284.097839,269.692047 284.184662,276.404297 284.150177,283.573364 
	C277.345917,285.875580 270.598114,285.014984 263.472229,284.218018 
	C263.041779,277.285126 262.997986,270.647949 263.004669,263.550293 
	C269.721466,261.784241 276.448730,262.785675 283.577271,262.769653 
z"/>
<path fill="#FEE715" opacity="1.000000" stroke="none" 
	d="
M102.586838,262.752411 
	C103.933952,269.201782 103.183525,275.489197 103.427422,281.755219 
	C103.497711,283.560852 102.868027,284.610474 100.896011,284.469604 
	C100.567123,284.446106 100.234299,284.484772 99.903496,284.480072 
	C94.120537,284.398346 88.337616,284.314331 82.554680,284.230835 
	C81.231445,277.528473 82.306923,270.756989 82.019257,263.566284 
	C88.727997,261.761444 95.455025,262.800659 102.586838,262.752411 
z"/>
<path fill="#FEE715" opacity="1.000000" stroke="none" 
	d="
M149.816193,82.451645 
	C156.705917,81.998253 163.349335,81.959373 170.446625,82.014297 
	C173.106369,88.750633 171.829605,95.517494 171.309631,102.622101 
	C164.289124,104.054596 157.542145,103.288155 150.369751,103.218658 
	C148.994415,96.328362 149.681046,89.590202 149.816193,82.451645 
z"/>
<path fill="#FEE715" opacity="1.000000" stroke="none" 
	d="
M419.544006,398.748169 
	C419.953735,405.055847 419.899139,411.031860 420.094818,416.999664 
	C420.174927,419.443359 419.311035,420.114960 416.971466,420.043610 
	C411.996552,419.891907 407.005035,419.819153 402.037506,420.063385 
	C398.989838,420.213257 398.492401,418.912476 398.577209,416.289337 
	C398.754242,410.817383 398.663116,405.336761 398.817749,399.404877 
	C405.630951,396.331665 412.402069,397.234894 419.544006,398.748169 
z"/>
<path fill="#FEE715" opacity="1.000000" stroke="none" 
	d="
M330.721863,399.397034 
	C337.145844,397.981079 343.436676,398.788757 349.701874,398.513458 
	C351.746613,398.423553 352.175720,399.473541 352.156250,401.244965 
	C352.097931,406.542847 352.008942,411.846283 352.192657,417.138489 
	C352.283722,419.761810 351.071411,420.072571 348.923248,420.032227 
	C343.295441,419.926483 337.664459,419.992523 331.574158,419.958984 
	C329.750275,413.267334 330.814880,406.538452 330.721863,399.397034 
z"/>
<path fill="#FEE715" opacity="1.000000" stroke="none" 
	d="
M285.592407,399.294556 
	C292.021454,398.768036 298.166779,398.708801 304.306335,398.489014 
	C306.585754,398.407379 307.259064,399.420959 307.024445,401.457153 
	C307.005493,401.621399 307.025085,401.789856 307.022736,401.956299 
	C306.941315,407.762421 306.859436,413.568573 306.777618,419.374695 
	C300.226349,420.743683 293.599121,419.657135 286.555084,419.939087 
	C284.207214,418.256256 284.433624,416.008301 284.539154,413.905518 
	C284.776825,409.169281 283.695770,404.357697 285.592407,399.294556 
z"/>
<path fill="#FEE715" opacity="1.000000" stroke="none" 
	d="
M284.191162,419.487610 
	C277.891296,419.908539 271.895752,419.849609 265.908722,420.046936 
	C263.440948,420.128265 262.788666,419.235443 262.861328,416.901031 
	C263.011475,412.076630 263.078705,407.235870 262.842590,402.418335 
	C262.695160,399.410492 263.520996,398.291779 266.686127,398.448273 
	C272.168396,398.719330 277.671356,398.571075 283.608368,398.775970 
	C285.822418,405.636475 285.058685,412.376038 284.191162,419.487610 
z"/>
<path fill="#FEE715" opacity="1.000000" stroke="none" 
	d="
M217.654816,399.350586 
	C224.080200,397.966919 230.245834,398.818481 236.379745,398.496216 
	C238.668503,398.375977 239.331940,399.442566 239.106995,401.475494 
	C239.088776,401.640045 239.108063,401.808472 239.105484,401.975067 
	C239.015396,407.783203 238.924759,413.591370 238.834198,419.399506 
	C232.267578,420.711853 225.631836,419.675964 218.578125,419.921600 
	C216.201813,418.248566 216.429077,415.999451 216.540924,413.903717 
	C216.792908,409.181549 215.651520,404.375275 217.654816,399.350586 
z"/>
<path fill="#FEE715" opacity="1.000000" stroke="none" 
	d="
M216.209045,419.512085 
	C210.086914,419.930054 204.258148,419.807922 198.445923,420.062714 
	C195.487564,420.192444 194.818924,419.086639 194.933594,416.374115 
	C195.130173,411.723694 195.166290,407.049652 194.924133,402.403564 
	C194.767349,399.395508 195.593628,398.291412 198.754196,398.447205 
	C204.232056,398.717224 209.730911,398.561676 215.678055,398.733368 
	C217.701630,405.604126 217.124023,412.365723 216.209045,419.512085 
z"/>
<path fill="#FDE615" opacity="1.000000" stroke="none" 
	d="
M172.624420,399.076355 
	C178.940262,398.652832 184.905746,398.655762 190.866089,398.482208 
	C193.187515,398.414612 194.103836,399.129974 194.029373,401.573273 
	C193.872894,406.708282 193.867630,411.855072 194.031906,416.989594 
	C194.109802,419.424896 193.246918,420.103821 190.907761,420.044312 
	C185.274155,419.901001 179.634583,419.993225 173.534531,419.954590 
	C171.113129,418.128143 171.444641,415.727234 171.541306,413.497253 
	C171.744583,408.807953 170.739624,404.050385 172.624420,399.076355 
z"/>
<path fill="#FEE715" opacity="1.000000" stroke="none" 
	d="
M149.736816,399.404938 
	C156.645599,398.008942 163.397659,398.673553 170.568161,398.809082 
	C172.942917,405.661072 172.007874,412.384613 171.179123,419.468719 
	C164.257416,419.889557 157.650131,419.939453 150.583221,419.955322 
	C148.737671,413.264954 149.816681,406.538452 149.736816,399.404938 
z"/>
<path fill="#FEE715" opacity="1.000000" stroke="none" 
	d="
M419.522125,285.785767 
	C419.953766,292.055878 419.899170,298.031860 420.094818,303.999664 
	C420.174927,306.443359 419.311035,307.114960 416.971466,307.043610 
	C411.996552,306.891907 407.005066,306.819244 402.037537,307.063385 
	C398.990021,307.213196 398.492401,305.912598 398.577271,303.289307 
	C398.754303,297.817383 398.663116,292.336731 398.817749,286.404877 
	C405.643616,284.157837 412.393372,284.965332 419.522125,285.785767 
z"/>
<path fill="#FEE715" opacity="1.000000" stroke="none" 
	d="
M399.366028,397.308350 
	C398.845612,390.920013 398.770630,384.789246 398.609863,378.660675 
	C398.562225,376.844879 399.038910,375.932709 401.093719,375.971497 
	C406.571136,376.074890 412.054718,376.110016 417.529907,375.958374 
	C420.031799,375.889038 420.084595,377.233398 420.065582,379.061035 
	C420.006836,384.705841 420.035309,390.351593 419.968811,396.456787 
	C413.260101,399.054840 406.506287,397.904327 399.366028,397.308350 
z"/>
<path fill="#FEE715" opacity="1.000000" stroke="none" 
	d="
M97.010300,397.485474 
	C91.782104,397.121552 85.463043,399.579468 82.766823,396.443726 
	C80.432106,393.728485 82.065292,387.593750 81.964348,382.970001 
	C81.931732,381.476135 82.057800,379.973236 81.939354,378.488190 
	C81.779839,376.488251 82.678474,375.942780 84.551567,375.973572 
	C89.864288,376.060944 95.183380,376.125305 100.491829,375.951019 
	C103.059181,375.866760 103.526176,376.988129 103.462448,379.196014 
	C103.342712,383.344238 103.075829,387.536926 103.522408,391.640137 
	C104.058479,396.565643 102.246170,398.342987 97.010300,397.485474 
z"/>
<path fill="#FEE715" opacity="1.000000" stroke="none" 
	d="
M216.417114,102.712555 
	C210.026077,103.238907 203.916687,103.306892 197.811646,103.507072 
	C195.696075,103.576439 194.903610,102.851662 194.952057,100.681541 
	C195.070221,95.387840 195.117477,90.085266 194.933960,84.795265 
	C194.844650,82.220436 195.948700,81.805557 198.156570,81.853783 
	C203.781342,81.976662 209.410355,81.905014 215.500061,81.975388 
	C218.826202,88.699745 217.599197,95.508896 216.417114,102.712555 
z"/>
<path fill="#FEE715" opacity="1.000000" stroke="none" 
	d="
M398.624146,341.996460 
	C398.624298,330.839569 398.624298,330.839569 409.118469,330.839569 
	C420.047180,330.839569 420.047150,330.839569 420.047150,342.001953 
	C420.047119,352.160431 420.047180,352.160431 410.111450,352.160431 
	C409.445831,352.160431 408.780182,352.160431 408.114563,352.160431 
	C398.624268,352.160431 398.624268,352.160431 398.624146,341.996460 
z"/>
<path fill="#FEE715" opacity="1.000000" stroke="none" 
	d="
M102.586838,330.752411 
	C103.900841,337.672882 103.271431,344.421112 103.191742,351.604248 
	C96.324081,353.031921 89.589684,352.310364 82.468529,352.158997 
	C82.034904,345.270905 82.003532,338.648407 82.019257,331.566162 
	C88.727997,329.761444 95.455025,330.800659 102.586838,330.752411 
z"/>
<path fill="#FEE715" opacity="1.000000" stroke="none" 
	d="
M217.782501,82.471680 
	C224.722900,82.026932 231.367493,81.968887 238.472900,81.972229 
	C240.185440,88.709160 239.223831,95.441063 239.254425,102.585388 
	C232.338242,104.014977 225.582260,103.306824 218.400452,103.218170 
	C216.139938,96.349777 216.976593,89.600250 217.782501,82.471680 
z"/>
<path fill="#FEE715" opacity="1.000000" stroke="none" 
	d="
M284.353760,102.656647 
	C277.323242,103.987640 270.568085,103.322144 263.386169,103.210236 
	C261.969696,96.318588 262.691559,89.581711 262.822388,82.449020 
	C269.719604,81.997177 276.365509,81.956825 283.469147,81.997421 
	C286.269684,84.378952 285.503204,87.351219 285.436615,90.053848 
	C285.336304,94.125900 286.280884,98.288399 284.353760,102.656647 
z"/>
<path fill="#FEE715" opacity="1.000000" stroke="none" 
	d="
M97.942398,195.001816 
	C102.705811,194.170166 103.845192,196.066605 103.513313,200.130905 
	C103.149536,204.585876 103.358620,209.094589 103.453323,213.577011 
	C103.498268,215.704056 102.717484,216.543640 100.559753,216.506516 
	C95.246399,216.415070 89.929848,216.433823 84.615768,216.501205 
	C82.788887,216.524368 81.774010,216.015915 81.946831,213.986816 
	C82.045135,212.832718 81.897446,211.659103 81.970009,210.501129 
	C82.287796,205.429474 79.767204,198.639725 83.015739,195.775558 
	C85.850388,193.276337 92.489685,195.092377 97.942398,195.001816 
z"/>
<path fill="#FEE715" opacity="1.000000" stroke="none" 
	d="
M419.544037,217.748199 
	C419.953735,224.080414 419.910553,230.080322 420.090302,236.073532 
	C420.161377,238.443146 419.432953,239.284210 417.006805,239.206589 
	C412.011932,239.046829 407.004242,239.037689 402.010132,239.209000 
	C399.434998,239.297348 398.483398,238.531357 398.574219,235.856567 
	C398.766388,230.196259 398.663788,224.525940 398.817688,218.404907 
	C405.630951,215.331665 412.402069,216.234879 419.544037,217.748199 
z"/>
<path fill="#FEE715" opacity="1.000000" stroke="none" 
	d="
M82.468536,239.159027 
	C82.030792,232.939590 82.134926,226.980240 81.899750,221.034302 
	C81.785469,218.145065 82.800781,217.342163 85.564735,217.461487 
	C90.188141,217.661087 94.839279,217.727325 99.454254,217.446793 
	C102.929428,217.235550 103.595604,218.747986 103.481339,221.783951 
	C103.276154,227.235641 103.381187,232.699020 103.191734,238.604156 
	C96.324066,240.031906 89.589668,239.310349 82.468536,239.159027 
z"/>
<path fill="#FEE715" opacity="1.000000" stroke="none" 
	d="
M330.807190,82.446098 
	C337.705536,81.988289 344.364594,81.949203 351.485352,81.970779 
	C353.168335,88.711594 352.228485,95.445679 352.269165,102.598175 
	C345.337830,103.994209 338.557861,103.314293 331.344635,103.227127 
	C330.030518,96.335342 330.665955,89.594093 330.807190,82.446098 
z"/>
<path fill="#FEE715" opacity="1.000000" stroke="none" 
	d="
M399.366028,216.308380 
	C398.845612,209.920074 398.770660,203.789276 398.609894,197.660736 
	C398.562225,195.844925 399.038849,194.932663 401.093689,194.971451 
	C406.571106,195.074844 412.054657,195.110016 417.529846,194.958344 
	C420.031738,194.889023 420.084625,196.233398 420.065613,198.061020 
	C420.006866,203.705856 420.035339,209.351578 419.968811,215.456787 
	C413.260101,218.054840 406.506287,216.904327 399.366028,216.308380 
z"/>
<path fill="#FEE715" opacity="1.000000" stroke="none" 
	d="
M285.752686,195.471329 
	C291.901428,195.071274 297.716278,195.184753 303.515961,194.939651 
	C306.409973,194.817337 307.177551,195.823380 307.060333,198.580521 
	C306.856079,203.385971 306.832397,208.214661 307.065796,213.017426 
	C307.210480,215.994370 306.019135,216.626312 303.333679,216.534775 
	C297.861694,216.348236 292.379822,216.449646 286.444458,216.318176 
	C283.246399,209.486801 284.285645,202.663055 285.752686,195.471329 
z"/>
<path fill="#FEE715" opacity="1.000000" stroke="none" 
	d="
M262.853638,195.464981 
	C269.741638,195.052094 276.353851,195.034714 283.423676,195.077057 
	C286.097290,201.796326 284.835205,208.583832 284.315643,215.711533 
	C277.290344,216.931061 270.552063,216.349823 263.383362,216.211105 
	C261.977325,209.318985 262.682678,202.582397 262.853638,195.464981 
z"/>
<path fill="#FEE715" opacity="1.000000" stroke="none" 
	d="
M285.757690,82.441666 
	C291.831085,81.994598 297.623108,82.060226 303.404205,81.839943 
	C306.101288,81.737175 307.227600,82.393089 307.087677,85.339729 
	C306.852509,90.292137 306.883575,95.269295 307.078644,100.225182 
	C307.184418,102.911774 306.170929,103.602470 303.660431,103.527672 
	C298.039978,103.360229 292.412262,103.436447 286.332336,103.260696 
	C284.263214,96.380646 284.921112,89.607887 285.757690,82.441666 
z"/>
<path fill="#FEE715" opacity="1.000000" stroke="none" 
	d="
M239.256805,215.586304 
	C232.800858,217.047943 226.490021,216.192871 220.207916,216.485703 
	C217.713287,216.601974 217.689316,215.037720 217.699982,213.260620 
	C217.729919,208.277435 217.838242,203.289261 217.656586,198.312515 
	C217.561493,195.707153 218.386536,194.861603 221.013672,194.946991 
	C226.655609,195.130356 232.307480,195.007034 238.415283,195.038040 
	C240.263489,201.724777 239.184677,208.452927 239.256805,215.586304 
z"/>
<path fill="#FEE715" opacity="1.000000" stroke="none" 
	d="
M418.811523,171.083862 
	C413.001190,171.147522 407.671265,171.038330 402.350281,171.208344 
	C399.695099,171.293182 398.420227,170.733658 398.563019,167.704224 
	C398.797882,162.721878 398.697296,157.719055 398.596436,152.727722 
	C398.554108,150.633026 399.201996,149.757202 401.417267,149.805893 
	C406.740967,149.922928 412.069000,149.849747 417.395264,149.838409 
	C418.786774,149.835449 420.164276,149.799255 420.036469,151.806900 
	C419.628937,158.207199 420.935394,164.673538 418.811523,171.083862 
z"/>
<path fill="#FEE715" opacity="1.000000" stroke="none" 
	d="
M102.586815,149.752411 
	C103.900871,156.672882 103.271423,163.421127 103.191727,170.604248 
	C96.324059,172.031906 89.589661,171.310349 82.468521,171.159027 
	C82.034897,164.270935 82.003525,157.648422 82.019249,150.566208 
	C88.727974,148.761459 95.455002,149.800659 102.586815,149.752411 
z"/>
<path fill="#FEE715" opacity="1.000000" stroke="none" 
	d="
M103.431198,115.987755 
	C103.431038,125.998177 103.430885,126.029610 93.858482,125.982574 
	C90.072067,125.963966 85.019394,127.211235 82.828644,125.284119 
	C80.224525,122.993385 82.061546,117.807907 82.003693,113.887772 
	C81.865379,104.515945 81.959038,104.514565 91.190147,104.514542 
	C91.688370,104.514534 92.186592,104.514542 92.684814,104.514542 
	C103.431114,104.514549 103.431114,104.514549 103.431198,115.987755 
z"/>
<path fill="#FEE715" opacity="1.000000" stroke="none" 
	d="
M409.991669,104.514465 
	C420.047180,104.514694 420.073853,104.514809 420.033997,114.046364 
	C420.018127,117.836174 421.297485,122.858070 419.385345,125.095818 
	C417.109955,127.758705 411.922058,125.887489 408.009003,125.949844 
	C398.625824,126.099358 398.624207,125.998192 398.624176,116.819778 
	C398.624176,116.322006 398.624176,115.824226 398.624176,115.326454 
	C398.624176,104.514641 398.624176,104.514641 409.991669,104.514465 
z"/>
<path fill="#F8E215" opacity="1.000000" stroke="none" 
	d="
M195.435730,261.241791 
	C195.028610,254.629181 195.012665,248.300537 195.020691,241.506653 
	C201.980118,239.089142 208.980804,239.910095 216.295609,240.912689 
	C216.624847,247.456604 216.635712,253.636993 216.631134,260.267334 
	C215.122528,262.634644 212.976517,261.995667 211.098923,261.954041 
	C206.008362,261.841217 200.890991,262.531311 195.435730,261.241791 
z"/>
<path fill="#7F7611" opacity="1.000000" stroke="none" 
	d="
M171.163147,103.153610 
	C170.962662,96.342346 170.925476,89.686783 170.894409,82.569656 
	C171.368683,82.045822 171.836884,81.983543 172.656876,81.965187 
	C172.956421,88.779266 172.904160,95.549431 172.917969,102.803085 
	C172.439850,103.901405 171.880951,103.445076 171.163147,103.153610 
z"/>
<path fill="#7F7611" opacity="1.000000" stroke="none" 
	d="
M285.784058,353.189758 
	C286.142609,360.106628 286.104065,366.977448 286.130615,374.296814 
	C285.660675,374.752380 285.125671,374.759399 284.188904,374.741302 
	C283.810364,367.865997 283.833649,361.015808 283.824768,353.714966 
	C284.324097,353.224121 284.855530,353.183929 285.784058,353.189758 
z"/>
<path fill="#7F7611" opacity="1.000000" stroke="none" 
	d="
M284.168823,216.244659 
	C283.981262,209.412003 283.955475,202.733582 283.905518,195.595978 
	C284.373260,195.099655 284.865204,195.062515 285.724976,195.065582 
	C286.042999,201.817627 285.993134,208.529434 285.965088,215.722595 
	C285.434784,216.268936 284.882721,216.333908 284.168823,216.244659 
z"/>
<path fill="#7F7611" opacity="1.000000" stroke="none" 
	d="
M171.234344,419.859741 
	C170.879150,413.206604 170.893631,406.573547 170.953644,399.474426 
	C171.543732,398.815674 172.088272,398.623016 172.804810,398.575378 
	C172.943039,405.483368 172.909271,412.246307 172.973572,419.463989 
	C172.582443,419.905731 172.093231,419.892792 171.234344,419.859741 
z"/>
<path fill="#7A7111" opacity="1.000000" stroke="none" 
	d="
M216.205444,374.787872 
	C216.409897,367.881073 216.168655,361.002716 215.881104,353.674561 
	C216.344315,353.214264 216.877426,353.203888 217.810822,353.225403 
	C218.187500,360.114136 218.163895,366.970978 218.182159,374.277222 
	C217.685532,374.758575 217.147018,374.790497 216.205444,374.787872 
z"/>
<path fill="#7A7111" opacity="1.000000" stroke="none" 
	d="
M171.176666,374.724701 
	C170.789856,367.863464 170.807007,361.016785 170.799576,353.719391 
	C171.307114,353.214111 171.839249,353.159546 172.769897,353.153503 
	C172.397964,360.090057 172.691589,366.987915 173.080963,374.330688 
	C172.649948,374.763550 172.115295,374.751404 171.176666,374.724701 
z"/>
<path fill="#988C12" opacity="1.000000" stroke="none" 
	d="
M148.654541,217.796936 
	C141.799408,218.174103 134.962921,218.151047 127.671844,218.130890 
	C127.201965,217.630081 127.186691,217.126404 127.194725,216.245300 
	C134.062042,215.853546 140.906067,215.839188 148.195282,215.809845 
	C148.651382,216.328827 148.662277,216.862778 148.654541,217.796936 
z"/>
<path fill="#988C12" opacity="1.000000" stroke="none" 
	d="
M374.814819,217.750641 
	C367.949005,218.143356 361.107727,218.160461 353.822632,218.195541 
	C353.368500,217.675262 353.358185,217.137024 353.364899,216.195282 
	C360.215027,215.820160 367.048096,215.848526 374.336365,215.873932 
	C374.807495,216.372345 374.823456,216.873688 374.814819,217.750641 
z"/>
<path fill="#7F7611" opacity="1.000000" stroke="none" 
	d="
M285.723816,127.065788 
	C286.087311,134.022385 286.084198,140.940262 286.136658,148.308594 
	C285.658722,148.774017 285.125214,148.788986 284.191467,148.767761 
	C283.841370,141.838058 283.891449,134.944534 283.914062,127.591721 
	C284.376770,127.097298 284.867004,127.062180 285.723816,127.065788 
z"/>
<path fill="#7F7611" opacity="1.000000" stroke="none" 
	d="
M217.748383,127.105560 
	C218.129074,134.033844 218.142548,140.930954 218.185837,148.278427 
	C217.680618,148.767715 217.145584,148.806656 216.210602,148.802124 
	C215.887741,141.844772 215.964798,134.930893 215.977417,127.558754 
	C216.402390,127.091789 216.891769,127.083099 217.748383,127.105560 
z"/>
<path fill="#7F7611" opacity="1.000000" stroke="none" 
	d="
M171.181290,148.734055 
	C170.815659,141.831085 170.851379,134.951447 170.877747,127.613289 
	C171.357468,127.104286 171.846558,127.053802 172.702789,127.041534 
	C172.569931,134.012955 172.686890,140.948074 173.090576,148.332245 
	C172.644562,148.772934 172.113602,148.765167 171.181290,148.734055 
z"/>
<path fill="#7F7611" opacity="1.000000" stroke="none" 
	d="
M216.211685,329.798706 
	C215.890823,322.842926 215.970154,315.928589 215.982208,308.556152 
	C216.404251,308.091064 216.893539,308.084076 217.750183,308.107513 
	C218.131439,315.033997 218.145355,321.930054 218.188370,329.276337 
	C217.682281,329.764435 217.147079,329.802307 216.211685,329.798706 
z"/>
<path fill="#988C12" opacity="1.000000" stroke="none" 
	d="
M353.366241,284.197968 
	C360.216278,283.822296 367.048737,283.849609 374.336365,283.873962 
	C374.807556,284.372620 374.823547,284.874207 374.815186,285.751587 
	C367.949341,286.144135 361.107880,286.160889 353.822571,286.195679 
	C353.368683,285.676147 353.358673,285.138550 353.366241,284.197968 
z"/>
<path fill="#988C12" opacity="1.000000" stroke="none" 
	d="
M308.172485,284.254120 
	C315.030823,283.860138 321.866364,283.839294 329.143127,283.794434 
	C329.592712,284.315552 329.601074,284.860718 329.595032,285.814636 
	C322.755859,286.187012 315.931091,286.150696 308.650299,286.117859 
	C308.179413,285.623352 308.164551,285.125305 308.172485,284.254120 
z"/>
<path fill="#7A7111" opacity="1.000000" stroke="none" 
	d="
M216.665192,240.836929 
	C209.754272,239.782028 202.826538,240.775528 195.486191,240.876053 
	C195.076752,240.556976 195.108856,240.072556 195.153107,239.219376 
	C202.000641,238.820877 208.835999,238.791122 216.107208,238.704590 
	C216.600830,239.231094 216.658600,239.814362 216.665192,240.836929 
z"/>
<path fill="#7A7111" opacity="1.000000" stroke="none" 
	d="
M195.009491,261.325317 
	C201.952332,261.796021 208.864929,261.647400 216.197662,260.888000 
	C216.585739,261.297424 216.555801,261.877533 216.530273,262.900024 
	C209.716660,263.276642 202.898621,263.210876 195.622620,263.147705 
	C195.101227,262.664490 195.037842,262.178650 195.009491,261.325317 
z"/>
<path fill="#988C12" opacity="1.000000" stroke="none" 
	d="
M148.654541,285.796967 
	C141.799408,286.174133 134.962921,286.151062 127.671829,286.130890 
	C127.201958,285.630096 127.186691,285.126434 127.194740,284.245361 
	C134.062042,283.853607 140.906036,283.839233 148.195236,283.809937 
	C148.651352,284.328888 148.662262,284.862823 148.654541,285.796967 
z"/>
<path fill="#7F7611" opacity="1.000000" stroke="none" 
	d="
M195.081177,284.262970 
	C201.975327,283.879547 208.830170,283.863678 216.117691,283.763611 
	C216.571472,284.264954 216.592575,284.850494 216.579865,285.874512 
	C209.710281,286.216278 202.874512,286.119629 195.579529,286.063995 
	C195.094177,285.613525 195.068024,285.122009 195.081177,284.262970 
z"/>
<path fill="#7F7611" opacity="1.000000" stroke="none" 
	d="
M285.691803,81.998123 
	C286.001556,88.749886 285.959564,95.453720 285.897369,102.632751 
	C285.468933,103.141670 285.060699,103.175377 284.351562,103.128204 
	C284.015442,96.366600 283.980194,89.685883 283.935913,82.541763 
	C284.397919,82.035645 284.868988,81.992920 285.691803,81.998123 
z"/>
<path fill="#7F7611" opacity="1.000000" stroke="none" 
	d="
M419.951660,285.722992 
	C413.237061,286.048767 406.566559,286.014313 399.424683,285.964966 
	C398.904053,285.525818 398.854797,285.101562 398.879242,284.363403 
	C405.630157,284.027313 412.307373,284.005127 419.446106,283.949768 
	C419.937042,284.398651 419.966400,284.880737 419.951660,285.722992 
z"/>
<path fill="#7F7611" opacity="1.000000" stroke="none" 
	d="
M217.725952,82.042358 
	C218.063934,88.755882 218.049545,95.426804 217.997543,102.567368 
	C217.552902,103.113503 217.145874,103.189995 216.436310,103.192757 
	C216.105453,96.402077 216.077148,89.685143 216.005646,82.503876 
	C216.432831,82.026291 216.903198,82.013023 217.725952,82.042358 
z"/>
<path fill="#7F7611" opacity="1.000000" stroke="none" 
	d="
M263.040649,284.280640 
	C269.753113,283.953094 276.420654,283.983856 283.558533,284.022400 
	C284.075317,284.462921 284.121765,284.895660 284.098602,285.649170 
	C277.355927,285.985138 270.682800,286.000336 263.547577,286.046692 
	C263.055542,285.598267 263.025635,285.118622 263.040649,284.280640 
z"/>
<path fill="#7F7611" opacity="1.000000" stroke="none" 
	d="
M398.879486,397.363770 
	C405.630432,397.027618 412.307495,397.005280 419.446106,396.949768 
	C419.937042,397.398651 419.966400,397.880737 419.951660,398.722961 
	C413.237061,399.048737 406.566559,399.014282 399.424683,398.964966 
	C398.904114,398.525909 398.854858,398.101746 398.879486,397.363770 
z"/>
<path fill="#7F7611" opacity="1.000000" stroke="none" 
	d="
M398.879456,216.363800 
	C405.630432,216.027664 412.307495,216.005341 419.446106,215.949799 
	C419.937012,216.398666 419.966370,216.880722 419.951660,217.722992 
	C413.237061,218.048752 406.566498,218.014313 399.424622,217.964966 
	C398.904053,217.525925 398.854828,217.101761 398.879456,216.363800 
z"/>
<path fill="#7F7611" opacity="1.000000" stroke="none" 
	d="
M216.276779,419.936279 
	C215.972794,413.208801 216.036758,406.521423 216.117950,399.358093 
	C216.542740,398.856934 216.950317,398.831726 217.659058,398.884583 
	C217.998978,405.622650 218.037781,412.282593 218.098618,419.401672 
	C217.628677,419.899353 217.136703,419.937866 216.276779,419.936279 
z"/>
<path fill="#7F7611" opacity="1.000000" stroke="none" 
	d="
M284.251770,419.897736 
	C283.914795,413.207428 283.946198,406.550690 284.014343,399.423584 
	C284.458801,398.880951 284.866516,398.808655 285.576324,398.813660 
	C285.912811,405.585602 285.947205,412.280243 286.038055,419.433533 
	C285.603058,419.905212 285.111633,419.918243 284.251770,419.897736 
z"/>
<path fill="#46420F" opacity="1.000000" stroke="none" 
	d="
M330.761383,127.072189 
	C331.100891,134.027069 331.091309,140.984268 331.154602,148.395630 
	C330.947937,148.842010 330.668396,148.834198 329.976013,148.751846 
	C329.606628,141.819397 329.650055,134.961472 329.708710,127.647690 
	C329.953369,127.152725 330.182800,127.113617 330.761383,127.072189 
z"/>
<path fill="#18190E" opacity="1.000000" stroke="none" 
	d="
M307.147003,148.906128 
	C306.845764,141.928513 306.913513,134.952881 306.929749,127.514481 
	C307.090057,127.052933 307.301849,127.054138 307.831360,127.059647 
	C308.141327,134.034500 308.133606,141.005066 308.189850,148.433533 
	C308.007843,148.897003 307.761932,148.902557 307.147003,148.906128 
z"/>
<path fill="#46420F" opacity="1.000000" stroke="none" 
	d="
M127.106674,171.204773 
	C134.041763,170.855820 140.981110,170.869034 148.373367,170.811310 
	C148.818024,171.019012 148.809769,171.297668 148.754059,171.991791 
	C141.840302,172.362259 134.973999,172.317291 127.651901,172.279282 
	C127.167717,172.046478 127.139328,171.806702 127.106674,171.204773 
z"/>
<path fill="#46420F" opacity="1.000000" stroke="none" 
	d="
M353.197205,171.154129 
	C360.117218,170.802536 367.049683,170.876892 374.441986,170.899689 
	C374.899109,171.086624 374.896423,171.325119 374.851532,171.918884 
	C367.938751,172.298172 361.068207,172.322189 353.750305,172.386719 
	C353.271881,172.144836 353.240784,171.862457 353.197205,171.154129 
z"/>
<path fill="#46420F" opacity="1.000000" stroke="none" 
	d="
M148.811310,262.846375 
	C141.889099,263.197327 134.956757,263.129578 127.565033,263.112732 
	C127.108025,262.922668 127.110420,262.681671 127.153664,262.081421 
	C134.068298,261.704254 140.942078,261.686310 148.264511,261.631592 
	C148.742508,261.872437 148.771866,262.150085 148.811310,262.846375 
z"/>
<path fill="#18190E" opacity="1.000000" stroke="none" 
	d="
M148.890503,194.882507 
	C141.923218,195.197220 134.959488,195.134949 127.533859,195.120255 
	C127.071098,194.946945 127.070229,194.726089 127.068253,194.173950 
	C134.037552,193.857605 141.007965,193.872559 148.435974,193.819534 
	C148.893723,194.002869 148.893875,194.254196 148.890503,194.882507 
z"/>
<path fill="#46420F" opacity="1.000000" stroke="none" 
	d="
M329.775085,262.865936 
	C322.864655,263.220367 315.939392,263.133514 308.553864,263.096252 
	C308.094879,262.911774 308.096191,262.677704 308.137268,262.094849 
	C315.045441,261.714783 321.913879,261.683533 329.226685,261.599243 
	C329.700806,261.838989 329.730530,262.131836 329.775085,262.865936 
z"/>
<path fill="#33320F" opacity="1.000000" stroke="none" 
	d="
M239.156723,374.846191 
	C238.800278,367.915985 238.856247,360.976776 238.842361,353.581421 
	C239.038223,353.128693 239.303940,353.132050 239.966736,353.169983 
	C240.333344,360.095612 240.302841,366.986603 240.332245,374.328735 
	C240.117798,374.798920 239.843460,374.818024 239.156723,374.846191 
z"/>
<path fill="#33320F" opacity="1.000000" stroke="none" 
	d="
M262.831299,353.133118 
	C263.186127,360.067566 263.142395,367.007538 263.178833,374.400879 
	C262.984802,374.847076 262.710632,374.839935 262.025879,374.806915 
	C261.655029,367.889709 261.694794,360.998413 261.686188,353.653503 
	C261.902802,353.179504 262.167755,353.159058 262.831299,353.133118 
z"/>
<path fill="#46420F" opacity="1.000000" stroke="none" 
	d="
M374.898071,330.793396 
	C367.963501,331.142456 361.025330,331.133179 353.635376,331.198669 
	C353.192657,330.989960 353.201691,330.706512 353.258453,330.000366 
	C360.170197,329.629944 367.034271,329.682220 374.354553,329.728882 
	C374.838715,329.960541 374.866577,330.197784 374.898071,330.793396 
z"/>
<path fill="#33320F" opacity="1.000000" stroke="none" 
	d="
M239.163330,329.868408 
	C238.842133,322.909882 238.916870,315.948669 238.935791,308.525940 
	C239.102341,308.066467 239.324692,308.068481 239.879639,308.095245 
	C240.223892,315.045990 240.235535,321.972015 240.298004,329.351715 
	C240.085632,329.825500 239.822449,329.845581 239.163330,329.868408 
z"/>
<path fill="#46420F" opacity="1.000000" stroke="none" 
	d="
M148.813934,330.839539 
	C141.890640,331.190002 134.955948,331.121735 127.561768,331.105530 
	C127.105408,330.916595 127.108543,330.675568 127.154716,330.075562 
	C134.069351,329.697449 140.940933,329.678284 148.261017,329.623718 
	C148.740524,329.865784 148.771530,330.143311 148.813934,330.839539 
z"/>
<path fill="#46420F" opacity="1.000000" stroke="none" 
	d="
M329.777954,330.858398 
	C322.866364,331.212158 315.938538,331.124878 308.550354,331.088501 
	C308.092041,330.905487 308.094116,330.671539 308.138184,330.089142 
	C315.046387,329.708252 321.912537,329.675781 329.223022,329.591492 
	C329.698792,329.832214 329.730286,330.124756 329.777954,330.858398 
z"/>
<path fill="#33320F" opacity="1.000000" stroke="none" 
	d="
M262.838257,240.131470 
	C263.180298,247.074799 263.131073,254.021774 263.111267,261.429443 
	C262.894287,261.884338 262.647919,261.878540 262.033478,261.839111 
	C261.699799,254.902115 261.734222,247.998779 261.717468,240.641327 
	C261.926514,240.169830 262.186768,240.152466 262.838257,240.131470 
z"/>
<path fill="#46420F" opacity="1.000000" stroke="none" 
	d="
M127.109024,239.198776 
	C134.042923,238.849045 140.979996,238.861359 148.369812,238.803482 
	C148.815186,239.011978 148.807785,239.290695 148.755402,239.985214 
	C141.841919,240.354980 134.973404,240.308945 127.648941,240.271698 
	C127.166054,240.040588 127.139122,239.800720 127.109024,239.198776 
z"/>
<path fill="#18190E" opacity="1.000000" stroke="none" 
	d="
M127.070984,307.163757 
	C134.039337,306.846771 141.006363,306.860962 148.430634,306.807312 
	C148.890137,306.990936 148.892395,307.242401 148.893982,307.871002 
	C141.926010,308.185699 134.958694,308.123260 127.529259,308.109070 
	C127.067978,307.936554 127.068817,307.715729 127.070984,307.163757 
z"/>
<path fill="#46420F" opacity="1.000000" stroke="none" 
	d="
M308.092468,239.210602 
	C315.025696,238.862122 321.961426,238.863693 329.346313,238.781982 
	C329.784180,238.991074 329.772949,239.283432 329.714661,240.012146 
	C322.808472,240.380417 315.949249,240.312347 308.632965,240.250183 
	C308.148895,240.024277 308.121918,239.792465 308.092468,239.210602 
z"/>
<path fill="#46420F" opacity="1.000000" stroke="none" 
	d="
M374.895752,262.799286 
	C367.962402,263.149170 361.026550,263.140808 353.639038,263.206451 
	C353.195557,262.996948 353.203674,262.713440 353.257019,262.006897 
	C360.168518,261.637177 367.034821,261.690491 374.357513,261.736389 
	C374.840363,261.966309 374.866791,262.203674 374.895752,262.799286 
z"/>
<path fill="#46420F" opacity="1.000000" stroke="none" 
	d="
M353.197235,352.154175 
	C360.117218,351.802612 367.049713,351.876923 374.441986,351.899719 
	C374.899109,352.086670 374.896423,352.325134 374.851532,352.918884 
	C367.938751,353.298157 361.068207,353.322174 353.750336,353.386688 
	C353.271942,353.144775 353.240814,352.862427 353.197235,352.154175 
z"/>
<path fill="#46420F" opacity="1.000000" stroke="none" 
	d="
M353.199860,239.147217 
	C360.118774,238.795181 367.048889,238.869049 374.438721,238.892578 
	C374.896423,239.080734 374.894470,239.319229 374.852539,239.913208 
	C367.939789,240.291458 361.067047,240.314224 353.746826,240.378754 
	C353.269928,240.138046 353.240479,239.855560 353.199860,239.147217 
z"/>
<path fill="#46420F" opacity="1.000000" stroke="none" 
	d="
M103.035324,262.687073 
	C96.348450,262.973755 89.670044,262.998322 82.529007,263.064667 
	C82.070251,262.884827 82.074142,262.663208 82.113472,262.110962 
	C88.772888,261.786987 95.396858,261.793579 102.483109,261.854980 
	C102.978195,262.081451 103.011002,262.253204 103.035324,262.687073 
z"/>
<path fill="#33320F" opacity="1.000000" stroke="none" 
	d="
M239.312225,216.035950 
	C239.039902,209.349655 239.012512,202.669632 238.930206,195.528214 
	C239.100128,195.069092 239.324951,195.071365 239.886017,195.099564 
	C240.192612,201.766418 240.162933,208.407333 240.088165,215.513535 
	C240.043060,215.978821 239.557159,216.042252 239.312225,216.035950 
z"/>
<path fill="#46420F" opacity="1.000000" stroke="none" 
	d="
M284.016724,262.703613 
	C277.334961,262.993225 270.658905,263.006622 263.518982,263.054932 
	C263.059937,262.880310 263.064697,262.670807 263.112549,262.149994 
	C269.771667,261.823761 276.387726,261.808868 283.465820,261.838501 
	C283.959381,262.064514 283.990875,262.245972 284.016724,262.703613 
z"/>
<path fill="#46420F" opacity="1.000000" stroke="none" 
	d="
M330.634888,398.931213 
	C330.926422,405.633850 330.957916,412.320587 331.051514,419.467651 
	C330.878815,419.926208 330.644012,419.924530 330.062500,419.861023 
	C329.715942,413.196533 329.716125,406.593903 329.797729,399.533569 
	C330.044342,399.022369 330.209564,398.968842 330.634888,398.931213 
z"/>
<path fill="#33320F" opacity="1.000000" stroke="none" 
	d="
M239.358414,148.058228 
	C239.108063,141.355652 239.048050,134.672028 238.933228,127.526894 
	C239.101257,127.067963 239.324097,127.070557 239.880386,127.097015 
	C240.175827,133.778595 240.137817,140.436310 240.013397,147.556961 
	C239.926987,148.019882 239.548752,148.077194 239.358414,148.058228 
z"/>
<path fill="#46420F" opacity="1.000000" stroke="none" 
	d="
M82.071899,239.226318 
	C88.739983,238.930511 95.413681,238.967590 102.557129,239.027740 
	C103.032379,239.225464 103.037888,239.400116 102.993927,239.832169 
	C96.318222,240.136444 89.691971,240.183319 82.606796,240.225769 
	C82.124413,240.000610 82.100960,239.779907 82.071899,239.226318 
z"/>
<path fill="#33320F" opacity="1.000000" stroke="none" 
	d="
M262.791077,127.073151 
	C263.076599,133.746170 263.027252,140.424637 262.911438,147.569870 
	C262.845001,148.036636 262.453949,148.067078 262.259369,148.042603 
	C261.991943,141.358444 261.919098,134.698746 261.816895,127.579025 
	C262.010437,127.105537 262.233307,127.092079 262.791077,127.073151 
z"/>
<path fill="#33320F" opacity="1.000000" stroke="none" 
	d="
M239.308502,103.033310 
	C239.039078,96.340240 239.015060,89.652550 238.962372,82.499237 
	C239.138748,82.036087 239.343796,82.038559 239.855560,82.064667 
	C240.151169,88.741791 240.140091,95.395279 240.085190,102.514229 
	C240.041367,102.979691 239.553940,103.038673 239.308502,103.033310 
z"/>
<path fill="#33320F" opacity="1.000000" stroke="none" 
	d="
M262.765198,82.043083 
	C263.048920,88.720032 263.024200,95.402527 262.973022,102.554428 
	C262.946594,103.023827 262.449921,103.028999 262.202881,103.003479 
	C261.920380,96.322464 261.884949,89.666977 261.845093,82.548485 
	C262.046082,82.073196 262.251404,82.060913 262.765198,82.043083 
z"/>
<path fill="#46420F" opacity="1.000000" stroke="none" 
	d="
M103.034927,330.685181 
	C96.348450,330.973755 89.670044,330.998322 82.529007,331.064667 
	C82.070473,330.883850 82.074577,330.661224 82.115410,330.106567 
	C88.773987,329.779572 95.395851,329.784546 102.479523,329.846191 
	C102.975227,330.075653 103.009117,330.248444 103.034927,330.685181 
z"/>
<path fill="#46420F" opacity="1.000000" stroke="none" 
	d="
M82.072205,171.227844 
	C88.739975,170.930511 95.413673,170.967590 102.557129,171.027740 
	C103.032097,171.226700 103.037315,171.402588 102.991440,171.837433 
	C96.316376,172.144394 89.692406,172.192413 82.609718,172.233810 
	C82.126709,172.005554 82.102417,171.783905 82.072205,171.227844 
z"/>
<path fill="#33320F" opacity="1.000000" stroke="none" 
	d="
M262.793304,195.073959 
	C263.085205,201.741760 263.040985,208.414062 262.970032,215.555817 
	C262.943359,216.025284 262.451294,216.032974 262.206604,216.007004 
	C261.922943,209.333786 261.883942,202.686523 261.815521,195.579285 
	C262.009766,195.105667 262.233459,195.092056 262.793304,195.073959 
z"/>
<path fill="#46420F" opacity="1.000000" stroke="none" 
	d="
M149.663574,398.946960 
	C149.952499,405.639771 149.983521,412.319824 150.069061,419.460602 
	C149.891968,419.918396 149.660370,419.915466 149.084457,419.865845 
	C148.748932,413.205811 148.757706,406.592499 148.835403,399.518677 
	C149.071442,399.016907 149.238556,398.975586 149.663574,398.946960 
z"/>
<path fill="#46420F" opacity="1.000000" stroke="none" 
	d="
M330.723389,82.025940 
	C331.014709,88.721443 330.982910,95.415527 330.924500,102.580811 
	C330.725800,103.062637 330.553741,103.073257 330.135132,103.006004 
	C329.824036,96.308716 329.759521,89.689285 329.731171,82.612572 
	C329.978271,82.111694 330.189270,82.068100 330.723389,82.025940 
z"/>
<path fill="#46420F" opacity="1.000000" stroke="none" 
	d="
M103.034927,149.685181 
	C96.348427,149.973770 89.670029,149.998352 82.528992,150.064728 
	C82.070457,149.883850 82.074577,149.661224 82.115417,149.106598 
	C88.774002,148.779572 95.395866,148.784546 102.479546,148.846161 
	C102.975250,149.075607 103.009140,149.248398 103.034927,149.685181 
z"/>
<path fill="#46420F" opacity="1.000000" stroke="none" 
	d="
M149.741043,82.039619 
	C150.036423,88.723915 150.010330,95.410706 149.955551,102.567680 
	C149.753418,103.044800 149.579956,103.051727 149.153290,102.998009 
	C148.844437,96.311386 148.788818,89.685417 148.758804,82.600693 
	C148.996124,82.108665 149.207855,82.075386 149.741043,82.039619 
z"/>
<path fill="#46420F" opacity="1.000000" stroke="none" 
	d="
M352.348450,103.059624 
	C352.062469,96.351265 352.035736,89.656982 351.978058,82.497070 
	C352.162018,82.031868 352.376923,82.032288 352.908447,82.092926 
	C353.237000,88.773979 353.248932,95.394798 353.184296,102.474579 
	C352.941040,102.980263 352.774353,103.026985 352.348450,103.059624 
z"/>
<path fill="#46420F" opacity="1.000000" stroke="none" 
	d="
M82.072205,352.227844 
	C88.739983,351.930511 95.413681,351.967590 102.557144,352.027710 
	C103.032112,352.226654 103.037315,352.402557 102.991425,352.837402 
	C96.316360,353.144379 89.692406,353.192383 82.609734,353.233795 
	C82.126717,353.005524 82.102425,352.783905 82.072205,352.227844 
z"/>
</svg>